<svg width="32" height="32" viewBox="0 0 32 32" fill="none" xmlns="http://www.w3.org/2000/svg">
<path d="M17.1616 8.43453C18.7615 8.70265 20.2148 9.45828 21.3749 10.6161C22.5351 11.7739 23.2862 13.2242 23.561 14.8208M17.4059 3.19995C20.2514 3.68136 22.8466 5.02809 24.9105 7.08169C26.9744 9.14139 28.3178 11.7313 28.8002 14.571M26.5775 25.8688C26.5775 25.8688 25.0326 27.3862 24.654 27.831C24.0373 28.4892 23.3106 28.7999 22.358 28.7999C22.2664 28.7999 22.1687 28.7999 22.0771 28.7939C20.2636 28.6781 18.5783 27.9712 17.3143 27.3679C13.8581 25.6982 10.8233 23.3277 8.30142 20.3235C6.21919 17.8189 4.82696 15.5033 3.90491 13.017C3.33703 11.4997 3.12942 10.3175 3.22101 9.20233C3.28207 8.48935 3.55686 7.89826 4.06367 7.39247L6.14591 5.31449C6.44512 5.03418 6.76264 4.88183 7.07406 4.88183C7.45876 4.88183 7.77018 5.1134 7.96558 5.3084C7.97168 5.31449 7.97779 5.32059 7.98389 5.32668C8.35638 5.67403 8.71054 6.03356 9.08302 6.41747C9.27232 6.61247 9.46772 6.80747 9.66312 7.00856L11.3301 8.67217C11.9774 9.31811 11.9774 9.9153 11.3301 10.5612C11.153 10.738 10.9821 10.9147 10.805 11.0853C10.2921 11.6094 10.695 11.2073 10.1638 11.6826C10.1515 11.6948 10.1393 11.7009 10.1332 11.713C9.60808 12.2371 9.70578 12.749 9.81569 13.0963C9.8218 13.1146 9.82791 13.1329 9.83401 13.1512C10.2676 14.1993 10.8782 15.1865 11.8063 16.3626L11.8124 16.3687C13.4978 18.4406 15.2747 20.0554 17.2348 21.2925C17.4852 21.4509 17.7416 21.5789 17.9859 21.7008C18.2057 21.8104 18.4133 21.914 18.5904 22.0237C18.6148 22.0359 18.6392 22.0542 18.6637 22.0664C18.8713 22.17 19.0667 22.2187 19.2682 22.2187C19.775 22.2187 20.0925 21.9019 20.1963 21.7983L21.3932 20.6038C21.6009 20.3966 21.9306 20.1468 22.3153 20.1468C22.6939 20.1468 23.0053 20.3844 23.1946 20.5916C23.2007 20.5977 23.2007 20.5977 23.2068 20.6038L26.5714 23.9615C27.2003 24.583 26.5775 25.8688 26.5775 25.8688Z" stroke="black" stroke-width="2" stroke-linecap="round" stroke-linejoin="round"/>
</svg>
