<svg width="51" height="51" viewBox="0 0 51 51" fill="none" xmlns="http://www.w3.org/2000/svg">
<g clip-path="url(#clip0_711_1230)">
<path d="M44.625 0H6.375C4.68424 0 3.06274 0.67165 1.86719 1.86719C0.67165 3.06274 0 4.68424 0 6.375L0 51H51V6.375C51 4.68424 50.3284 3.06274 49.1328 1.86719C47.9373 0.67165 46.3158 0 44.625 0V0ZM44.625 44.625H38.25V34C38.25 32.8728 37.8022 31.7918 37.0052 30.9948C36.2082 30.1978 35.1272 29.75 34 29.75H17C15.8728 29.75 14.7918 30.1978 13.9948 30.9948C13.1978 31.7918 12.75 32.8728 12.75 34V44.625H6.375V6.375H44.625V44.625Z" fill="#060165"/>
<path d="M25.4997 25.5012C29.6073 25.5012 32.9372 22.1713 32.9372 18.0637C32.9372 13.9561 29.6073 10.6262 25.4997 10.6262C21.392 10.6262 18.0622 13.9561 18.0622 18.0637C18.0622 22.1713 21.392 25.5012 25.4997 25.5012Z" fill="#060165"/>
</g>
<defs>
<clipPath id="clip0_711_1230">
<rect width="51" height="51" fill="white"/>
</clipPath>
</defs>
</svg>
