<svg width="51" height="51" viewBox="0 0 51 51" fill="none" xmlns="http://www.w3.org/2000/svg">
<g clip-path="url(#clip0_711_1214)">
<path d="M6.41136 28.6868H30.7171L25.003 34.4009L29.5101 38.9101L38.4117 30.0064C39.6069 28.8109 40.2782 27.1897 40.2782 25.4993C40.2782 23.8088 39.6069 22.1876 38.4117 20.9921L29.4867 12.0671L24.9754 16.5743L30.7129 22.3118H6.41136V28.6868Z" fill="#060165"/>
<path d="M43.5625 0H7.43754C5.45067 0.0157229 3.55131 0.819528 2.15674 2.23482C0.762168 3.65011 -0.0135407 5.56112 3.79834e-05 7.548V16.7875H6.37504V7.548C6.3676 7.40117 6.3892 7.25432 6.4386 7.11586C6.488 6.97739 6.56424 6.85003 6.66293 6.74107C6.76163 6.63211 6.88085 6.54369 7.01377 6.48087C7.14669 6.41806 7.29069 6.38208 7.43754 6.375H43.5625C43.8576 6.38933 44.1349 6.51985 44.334 6.73806C44.5331 6.95626 44.6377 7.24439 44.625 7.5395V43.452C44.6377 43.7471 44.5331 44.0352 44.334 44.2534C44.1349 44.4716 43.8576 44.6022 43.5625 44.6165H7.43754C7.14251 44.6022 6.86514 44.4716 6.66605 44.2534C6.46696 44.0352 6.36234 43.7471 6.37504 43.452V34.2125H3.79834e-05V43.4605C-0.0112796 45.4459 0.765429 47.3547 2.15976 48.7682C3.55408 50.1816 5.45216 50.9843 7.43754 51H43.5625C45.5494 50.9843 47.4488 50.1805 48.8433 48.7652C50.2379 47.3499 51.0136 45.4389 51 43.452V7.548C51.0136 5.56112 50.2379 3.65011 48.8433 2.23482C47.4488 0.819528 45.5494 0.0157229 43.5625 0V0Z" fill="#060165"/>
</g>
<defs>
<clipPath id="clip0_711_1214">
<rect width="51" height="51" fill="white"/>
</clipPath>
</defs>
</svg>
