<svg width="51" height="51" viewBox="0 0 51 51" fill="none" xmlns="http://www.w3.org/2000/svg">
<g clip-path="url(#clip0_711_1220)">
<path d="M6.375 6.375H17V0H6.375C4.68424 0 3.06274 0.67165 1.86719 1.86719C0.67165 3.06274 0 4.68424 0 6.375L0 44.625C0 46.3158 0.67165 47.9373 1.86719 49.1328C3.06274 50.3284 4.68424 51 6.375 51H17V44.625H6.375V6.375Z" fill="#060165"/>
<path d="M50.9999 28.6877V22.3127L19.7815 22.368L27.1447 15.0049L22.6312 10.4956L12.888 20.2409C12.1973 20.9315 11.6494 21.7514 11.2756 22.6538C10.9018 23.5563 10.7094 24.5235 10.7094 25.5002C10.7094 26.477 10.9018 27.4442 11.2756 28.3466C11.6494 29.249 12.1973 30.069 12.888 30.7596L22.6312 40.5049L27.1383 35.9956L19.8878 28.743L50.9999 28.6877Z" fill="#060165"/>
</g>
<defs>
<clipPath id="clip0_711_1220">
<rect width="51" height="51" fill="white"/>
</clipPath>
</defs>
</svg>
