<svg width="32" height="32" viewBox="0 0 32 32" fill="none" xmlns="http://www.w3.org/2000/svg">
<path d="M4.8002 11.7999C4.24791 11.7999 3.8002 12.2477 3.8002 12.7999C3.8002 13.3522 4.24791 13.7999 4.8002 13.7999V11.7999ZM27.2002 13.7999C27.7525 13.7999 28.2002 13.3522 28.2002 12.7999C28.2002 12.2477 27.7525 11.7999 27.2002 11.7999V13.7999ZM4.93457 18.9998C4.38228 18.9998 3.93457 19.4475 3.93457 19.9998C3.93457 20.5521 4.38228 20.9998 4.93457 20.9998V18.9998ZM27.3346 20.9998C27.8869 20.9998 28.3346 20.5521 28.3346 19.9998C28.3346 19.4475 27.8869 18.9998 27.3346 18.9998V20.9998ZM27.8002 15.9999C27.8002 22.5169 22.5172 27.7999 16.0002 27.7999V29.7999C23.6217 29.7999 29.8002 23.6215 29.8002 15.9999H27.8002ZM16.0002 27.7999C9.48323 27.7999 4.2002 22.5169 4.2002 15.9999H2.2002C2.2002 23.6215 8.37866 29.7999 16.0002 29.7999V27.7999ZM4.2002 15.9999C4.2002 9.48299 9.48323 4.19995 16.0002 4.19995V2.19995C8.37866 2.19995 2.2002 8.37842 2.2002 15.9999H4.2002ZM16.0002 4.19995C22.5172 4.19995 27.8002 9.48299 27.8002 15.9999H29.8002C29.8002 8.37842 23.6217 2.19995 16.0002 2.19995V4.19995ZM16.0002 27.7999C15.5579 27.7999 15.0576 27.5993 14.5155 27.0751C13.9685 26.5463 13.4303 25.7329 12.9566 24.6501C12.0104 22.4875 11.4002 19.43 11.4002 15.9999H9.40019C9.40019 19.6391 10.0436 22.9816 11.1242 25.4517C11.6639 26.6853 12.3324 27.7464 13.1254 28.513C13.9232 29.2843 14.8961 29.7999 16.0002 29.7999V27.7999ZM11.4002 15.9999C11.4002 12.5699 12.0104 9.51238 12.9566 7.3498C13.4303 6.26703 13.9685 5.45358 14.5155 4.92479C15.0576 4.40065 15.5579 4.19995 16.0002 4.19995V2.19995C14.8961 2.19995 13.9232 2.7156 13.1254 3.48689C12.3324 4.25353 11.6639 5.31459 11.1242 6.54817C10.0436 9.01828 9.40019 12.3608 9.40019 15.9999H11.4002ZM16.0002 29.7999C17.1043 29.7999 18.0772 29.2843 18.875 28.513C19.668 27.7464 20.3365 26.6853 20.8761 25.4517C21.9568 22.9816 22.6002 19.6391 22.6002 15.9999H20.6002C20.6002 19.43 19.99 22.4875 19.0438 24.6501C18.5701 25.7329 18.0319 26.5463 17.4849 27.0751C16.9428 27.5993 16.4425 27.7999 16.0002 27.7999V29.7999ZM22.6002 15.9999C22.6002 12.3608 21.9568 9.01828 20.8761 6.54817C20.3365 5.31459 19.668 4.25353 18.875 3.48689C18.0772 2.7156 17.1043 2.19995 16.0002 2.19995V4.19995C16.4425 4.19995 16.9428 4.40065 17.4849 4.92479C18.0319 5.45358 18.5701 6.26703 19.0438 7.3498C19.99 9.51238 20.6002 12.5699 20.6002 15.9999H22.6002ZM4.8002 13.7999H27.2002V11.7999H4.8002V13.7999ZM4.93457 20.9998H27.3346V18.9998H4.93457V20.9998Z" fill="black"/>
</svg>
