<svg width="39" height="38" viewBox="0 0 39 38" fill="none" xmlns="http://www.w3.org/2000/svg">
<path d="M20.8873 10.0161C22.7915 10.3345 24.5213 11.2318 25.9022 12.6067C27.2832 13.9816 28.1771 15.7039 28.5042 17.5998M21.178 3.80005C24.565 4.37172 27.6539 5.97096 30.1105 8.40962C32.5671 10.8555 34.1661 13.931 34.7402 17.3031M32.0946 30.7193C32.0946 30.7193 30.2558 32.5212 29.8052 33.0495C29.0711 33.831 28.2062 34.2 27.0724 34.2C26.9634 34.2 26.8471 34.2 26.738 34.1928C24.5794 34.0553 22.5735 33.2159 21.069 32.4995C16.9553 30.5167 13.343 27.7018 10.3413 24.1342C7.86292 21.1601 6.2058 18.4103 5.10833 15.4578C4.4324 13.656 4.18529 12.2521 4.29431 10.9279C4.36699 10.0812 4.69405 9.37929 5.2973 8.77867L7.7757 6.31107C8.13184 5.97819 8.50978 5.79728 8.88045 5.79728C9.33833 5.79728 9.709 6.07227 9.94158 6.30383C9.94885 6.31107 9.95612 6.3183 9.96339 6.32554C10.4067 6.73801 10.8283 7.16496 11.2716 7.62085C11.4969 7.85241 11.7295 8.08398 11.9621 8.32278L13.9463 10.2983C14.7167 11.0654 14.7167 11.7745 13.9463 12.5416C13.7355 12.7514 13.532 12.9613 13.3212 13.1639C12.7107 13.7862 13.1903 13.3087 12.558 13.8732C12.5434 13.8876 12.5289 13.8949 12.5216 13.9093C11.8966 14.5317 12.0129 15.1395 12.1437 15.552C12.151 15.5737 12.1582 15.5954 12.1655 15.6171C12.6815 16.8618 13.4083 18.0341 14.5131 19.4307L14.5204 19.4379C16.5263 21.8983 18.6413 23.8159 20.9744 25.2849C21.2724 25.4731 21.5776 25.625 21.8684 25.7698C22.13 25.9 22.3771 26.023 22.5879 26.1533C22.617 26.1678 22.646 26.1895 22.6751 26.2039C22.9222 26.327 23.1548 26.3849 23.3946 26.3849C23.9979 26.3849 24.3758 26.0086 24.4994 25.8855L25.924 24.4671C26.1711 24.2211 26.5636 23.9244 27.0215 23.9244C27.4721 23.9244 27.8428 24.2066 28.0681 24.4526C28.0754 24.4599 28.0754 24.4599 28.0826 24.4671L32.0873 28.4544C32.8359 29.1925 32.0946 30.7193 32.0946 30.7193Z" stroke="#BFBFC1" stroke-width="2" stroke-linecap="round" stroke-linejoin="round"/>
</svg>
