<svg width="65" height="65" viewBox="0 0 65 65" fill="none" xmlns="http://www.w3.org/2000/svg">
<path d="M30.0581 10.3017H14.6572C9.5538 10.3017 5.41667 14.4387 5.41667 19.542V50.3432C5.41667 55.4464 9.5538 59.5834 14.6572 59.5834H45.4591C50.5625 59.5834 54.6996 55.4464 54.6996 50.3432L54.6996 34.9426M20.8176 44.1827L32.0243 41.9247C32.6192 41.8048 33.1655 41.5119 33.5945 41.0826L58.6818 15.9824C59.8846 14.779 59.8837 12.8283 58.6799 11.6259L53.3655 6.31765C52.1622 5.11573 50.2125 5.11655 49.0101 6.31948L23.9203 31.4223C23.4921 31.8507 23.1997 32.3959 23.0797 32.9895L20.8176 44.1827Z" stroke="#060165" stroke-width="2" stroke-linecap="round" stroke-linejoin="round"/>
</svg>
