<svg width="65" height="65" viewBox="0 0 65 65" fill="none" xmlns="http://www.w3.org/2000/svg">
<path d="M39.6691 21.125V15.4375C39.6691 13.9291 39.0649 12.4824 37.9893 11.4158C36.9137 10.3492 35.4549 9.75 33.9338 9.75H13.8603C12.3392 9.75 10.8804 10.3492 9.80483 11.4158C8.72925 12.4824 8.125 13.9291 8.125 15.4375V49.5625C8.125 51.0709 8.72925 52.5176 9.80483 53.5842C10.8804 54.6508 12.3392 55.25 13.8603 55.25H33.9338C35.4549 55.25 36.9137 54.6508 37.9893 53.5842C39.0649 52.5176 39.6691 51.0709 39.6691 49.5625V43.875M22.4632 32.5H56.875M56.875 32.5L48.2721 23.9688M56.875 32.5L48.2721 41.0312" stroke="#060165" stroke-width="2" stroke-linecap="round" stroke-linejoin="round"/>
</svg>
