<svg width="65" height="65" viewBox="0 0 65 65" fill="none" xmlns="http://www.w3.org/2000/svg">
<path d="M25.3309 43.875V49.5625C25.3309 51.0709 25.9351 52.5176 27.0107 53.5842C28.0863 54.6508 29.5451 55.25 31.0662 55.25L51.1397 55.25C52.6608 55.25 54.1196 54.6508 55.1952 53.5842C56.2707 52.5176 56.875 51.0709 56.875 49.5625L56.875 15.4375C56.875 13.9291 56.2708 12.4824 55.1952 11.4158C54.1196 10.3492 52.6608 9.75 51.1397 9.75L31.0662 9.75C29.5451 9.75 28.0863 10.3492 27.0107 11.4158C25.9351 12.4824 25.3309 13.9291 25.3309 15.4375V21.125M42.5368 32.5L8.125 32.5M8.125 32.5L16.7279 41.0312M8.125 32.5L16.7279 23.9687" stroke="#060165" stroke-width="2" stroke-linecap="round" stroke-linejoin="round"/>
</svg>
