<svg width="39" height="38" viewBox="0 0 39 38" fill="none" xmlns="http://www.w3.org/2000/svg">
<path d="M7.16901 28.6701L6.37588 28.0611L6.37588 28.0611L7.16901 28.6701ZM9.01468 23.4932L8.01468 23.4808V23.4932H9.01468ZM9.05341 20.3631L10.0534 20.3755V20.3631H9.05341ZM32.236 28.6953L33.0412 28.1023L33.0412 28.1023L32.236 28.6953ZM30.4598 23.4932L29.4598 23.4801V23.4932H30.4598ZM30.4985 20.5182L31.4985 20.5313V20.5182H30.4985ZM25.776 30.1459C25.776 29.5936 25.3283 29.1459 24.776 29.1459C24.2237 29.1459 23.776 29.5936 23.776 30.1459H25.776ZM15.6191 30.1459C15.6191 29.5936 15.1714 29.1459 14.6191 29.1459C14.0668 29.1459 13.6191 29.5936 13.6191 30.1459H15.6191ZM6.0753 10.2957C5.86702 10.8072 6.11285 11.3907 6.62435 11.599C7.13586 11.8073 7.71936 11.5615 7.92763 11.05L6.0753 10.2957ZM11.9394 6.55005C12.4273 6.29128 12.6131 5.68597 12.3543 5.19806C12.0956 4.71016 11.4903 4.5244 11.0023 4.78317L11.9394 6.55005ZM28.3706 4.80168C27.8855 4.53778 27.2783 4.71715 27.0144 5.20231C26.7505 5.68746 26.9298 6.29469 27.415 6.55859L28.3706 4.80168ZM31.4635 11.0263C31.6662 11.54 32.247 11.7922 32.7608 11.5894C33.2745 11.3867 33.5266 10.8059 33.3239 10.2921L31.4635 11.0263ZM7.96215 29.2792C8.99082 27.9396 10.0147 25.9371 10.0147 23.4932H8.01468C8.01468 25.3695 7.22555 26.9546 6.37588 28.0611L7.96215 29.2792ZM10.0146 23.5055L10.0533 20.3755L8.05349 20.3508L8.01475 23.4808L10.0146 23.5055ZM33.0412 28.1023C32.2273 26.997 31.4598 25.3966 31.4598 23.4932H29.4598C29.4598 25.9396 30.4427 27.9465 31.4308 29.2882L33.0412 28.1023ZM31.4597 23.5062L31.4985 20.5313L29.4986 20.5052L29.4599 23.4801L31.4597 23.5062ZM31.4985 20.5182C31.4985 14.0547 26.2048 8.83341 19.6976 8.83341V10.8334C25.1207 10.8334 29.4985 15.1796 29.4985 20.5182H31.4985ZM31.5896 31.1459C32.4366 31.1459 32.9917 30.5564 33.2251 30.014C33.457 29.475 33.4954 28.719 33.0412 28.1023L31.4308 29.2882C31.3979 29.2435 31.394 29.2075 31.3937 29.2024C31.3936 29.1998 31.3937 29.21 31.388 29.2234C31.3819 29.2375 31.3824 29.2258 31.4108 29.2037C31.4264 29.1916 31.4505 29.1765 31.4836 29.1646C31.5175 29.1524 31.5541 29.1459 31.5896 29.1459V31.1459ZM10.0534 20.3631C10.0534 15.1102 14.361 10.8334 19.6976 10.8334V8.83341C13.2769 8.83341 8.05341 13.9853 8.05341 20.3631H10.0534ZM7.80709 29.1459C7.8435 29.1459 7.88101 29.1526 7.91559 29.1653C7.94924 29.1777 7.97347 29.1932 7.98871 29.2052C8.01631 29.2271 8.01526 29.2374 8.00822 29.2205C8.00149 29.2044 8.0015 29.1918 8.00142 29.193C8.00115 29.1968 7.99711 29.2336 7.96215 29.2792L6.37588 28.0611C5.90208 28.6781 5.9353 29.4464 6.1625 29.9908C6.39094 30.5382 6.94633 31.1459 7.80709 31.1459V29.1459ZM31.5896 29.1459H7.80709V31.1459H31.5896V29.1459ZM23.776 30.1459C23.776 32.1085 22.027 33.8334 19.6976 33.8334V35.8334C22.9777 35.8334 25.776 33.3609 25.776 30.1459H23.776ZM19.6976 33.8334C17.3682 33.8334 15.6191 32.1085 15.6191 30.1459H13.6191C13.6191 33.3609 16.4175 35.8334 19.6976 35.8334V33.8334ZM22.0832 6.50008C22.0832 7.77413 21.0299 8.83341 19.6976 8.83341V10.8334C22.105 10.8334 24.0832 8.90794 24.0832 6.50008H22.0832ZM19.6976 8.83341C18.3653 8.83341 17.3119 7.77413 17.3119 6.50008H15.3119C15.3119 8.90793 17.2902 10.8334 19.6976 10.8334V8.83341ZM17.3119 6.50008C17.3119 5.22604 18.3653 4.16675 19.6976 4.16675V2.16675C17.2902 2.16675 15.3119 4.09223 15.3119 6.50008H17.3119ZM19.6976 4.16675C21.0299 4.16675 22.0832 5.22604 22.0832 6.50008H24.0832C24.0832 4.09223 22.105 2.16675 19.6976 2.16675V4.16675ZM7.92763 11.05C8.71324 9.12056 10.1164 7.51693 11.9394 6.55005L11.0023 4.78317C8.74198 5.982 7.02774 7.95657 6.0753 10.2957L7.92763 11.05ZM27.415 6.55859C29.2766 7.57121 30.7193 9.14052 31.4635 11.0263L33.3239 10.2921C32.3932 7.93384 30.6091 6.0193 28.3706 4.80168L27.415 6.55859Z" fill="#BFBFC1"/>
</svg>
